<svg xmlns="http://www.w3.org/2000/svg" width="145" height="145" viewBox="0 0 145 145" fill="none"><circle cx="72.5" cy="72.5" r="72.5" fill="#227DF2"></circle><path d="M104.214 108.995L15.1264 86.8907C15.1021 86.8849 15.0795 86.8736 15.0602 86.8577C15.0409 86.8418 15.0255 86.8218 15.0151 86.799C15.0047 86.7763 14.9995 86.7515 15 86.7265C15.0006 86.7015 15.0068 86.6769 15.0181 86.6546L40.7054 36.0915C40.7223 36.0583 40.7498 36.0316 40.7834 36.0158C40.8171 36 40.8551 35.9959 40.8913 36.0042L129.876 58.2194C129.9 58.2255 129.922 58.237 129.941 58.253C129.96 58.269 129.975 58.289 129.985 58.3117C129.996 58.3344 130.001 58.3592 130 58.384C129.999 58.4089 129.993 58.4333 129.982 58.4554L104.403 108.908C104.386 108.942 104.358 108.969 104.324 108.985C104.29 109.001 104.251 109.004 104.214 108.995ZM19.7688 84.7638L102.53 105.301C102.566 105.31 102.604 105.306 102.638 105.291C102.672 105.275 102.7 105.249 102.718 105.216L125.346 60.6012C125.357 60.5788 125.363 60.5543 125.363 60.5295C125.364 60.5046 125.358 60.48 125.348 60.4574C125.338 60.4347 125.322 60.4147 125.303 60.3988C125.284 60.3828 125.262 60.3713 125.238 60.3651L42.5737 39.715C42.5371 39.7057 42.4984 39.7093 42.4641 39.7252C42.4299 39.7411 42.4021 39.7683 42.3855 39.8023L19.6723 84.5254C19.6608 84.5471 19.6542 84.571 19.6529 84.5955C19.6516 84.62 19.6557 84.6445 19.6649 84.6673C19.6741 84.69 19.6882 84.7104 19.7061 84.7271C19.7241 84.7438 19.7455 84.7563 19.7688 84.7638Z" fill="white" stroke="white" stroke-width="7"></path></svg>